<svg xmlns="http://www.w3.org/2000/svg" width="177" height="58" viewBox="0 0 177 58">
  <path d="M83.182,12.879 L92.297,12.879 C92.297,12.879 101.322,12.697 101.231,20.9 C101.141,27.008 92.481,27.919 92.481,27.919 L83.183,27.919 L83.183,12.879 L83.182,12.879 L83.182,12.879 Z M110.451,42.324 C110.707,43.517 111.57,44.832 114.449,44.967 C118.277,45.057 120.465,43.598 120.465,43.598 L120.465,46.424 C120.465,46.424 116.272,47.428 114.266,47.428 C112.17,47.428 105.971,46.971 105.971,41.229 C105.971,36.581 111.076,35.122 113.992,35.122 C119.097,35.304 121.558,37.128 121.467,42.323 C121.467,42.398 113.068,42.342 110.451,42.324 L110.451,42.324 Z M110.463,40.043 L117.457,40.043 C117.457,40.043 117.457,37.4 114.084,37.4 C111.547,37.4 110.717,38.768 110.463,40.043 Z M132.588,37.189 C133.6,36.091 135.299,35.212 138.149,35.212 C143.801,35.212 144.713,39.952 144.622,41.228 C144.531,42.504 144.075,47.335 137.513,47.335 C135.034,47.335 133.517,46.489 132.589,45.439 L132.589,46.97 L128.122,46.97 L128.122,30.562 L132.589,30.562 L132.589,37.189 L132.588,37.189 L132.588,37.189 Z M136.418,44.783 C139.061,44.691 140.246,42.414 140.246,41.32 C140.246,40.226 139.607,37.947 136.234,37.947 C133.617,37.947 132.82,39.924 132.588,40.89 L132.588,42.079 C132.818,43.064 133.619,44.783 136.418,44.783 L136.418,44.783 Z M174.977,44.328 L175.067,46.881 C175.067,46.881 172.971,47.336 171.604,47.336 C170.237,47.336 166.68,46.516 166.68,43.051 L166.68,37.764 L162.944,37.764 L162.944,35.395 L166.68,35.395 L166.68,32.569 L171.239,32.569 L171.239,35.395 L174.977,35.395 L174.977,37.764 L171.239,37.764 L171.239,42.323 C171.239,42.323 171.239,44.602 173.063,44.602 C174.885,44.602 174.977,44.328 174.977,44.328 L174.977,44.328 Z M161.121,15.34 L166.408,15.34 L166.408,28.01 L170.873,28.01 L170.873,15.34 L176.252,15.34 L176.252,12.696 L161.121,12.696 L161.121,15.34 Z M159.297,15.978 L159.844,13.334 C159.844,13.334 157.565,12.332 153.555,12.332 C149.635,12.332 143.346,14.52 143.346,20.445 C143.346,26.279 150,28.284 154.102,28.284 C158.204,28.284 159.571,27.646 159.571,27.646 L159.116,24.729 C159.116,24.729 157.292,25.276 154.192,25.276 C151.184,25.185 148.087,22.815 148.087,20.172 C148.177,17.802 150.911,15.158 154.468,15.158 C157.201,15.158 159.297,15.978 159.297,15.978 L159.297,15.978 Z M119.006,12.788 C119.006,12.788 126.481,12.424 126.481,16.799 C126.481,20.537 122.198,20.81 122.198,20.81 C122.198,20.81 123.382,20.992 123.93,21.812 C124.385,22.541 127.393,28.011 127.393,28.011 L122.834,28.011 C122.834,28.011 122.105,27.099 121.74,26.462 C121.467,25.824 120.646,24.456 120.646,24.456 C120.646,24.456 120.009,22.177 117.82,22.177 C117.765,22.177 116.875,22.143 116.179,22.117 L116.179,28.011 L111.804,28.011 L111.804,12.788 L119.006,12.788 L119.006,12.788 Z M116.18,19.625 L118.551,19.625 C118.551,19.625 121.832,19.442 122.014,17.437 C122.106,15.523 118.825,15.249 118.825,15.249 L116.18,15.249 L116.18,19.625 L116.18,19.625 Z M134.502,21.995 L141.795,21.995 L141.795,19.169 L134.502,19.169 L134.502,15.705 L142.434,15.705 L142.434,12.788 L130.038,12.788 L130.038,28.011 L142.526,28.011 L142.526,25.276 L134.503,25.276 L134.503,21.995 L134.502,21.995 Z M152.277,33.662 L156.744,33.662 L156.744,30.562 L152.277,30.562 L152.277,33.662 Z M152.277,46.971 L156.744,46.971 L156.744,35.395 L152.277,35.395 L152.277,46.971 L152.277,46.971 Z M103.602,28.011 L107.977,28.011 L107.977,12.788 L103.602,12.788 L103.602,28.011 L103.602,28.011 Z M83.182,31.84 L92.297,31.84 C92.297,31.84 101.322,31.656 101.231,39.861 C101.141,45.968 92.481,46.881 92.481,46.881 L83.183,46.881 L83.183,31.84 L83.182,31.84 L83.182,31.84 Z M87.649,44.055 L90.566,44.055 C90.566,44.055 96.582,43.69 96.582,39.041 C96.582,34.392 90.201,33.936 90.201,33.936 L87.649,33.936 L87.649,44.055 Z M87.649,25.094 L90.566,25.094 C90.566,25.094 96.582,24.638 96.582,20.08 C96.582,15.34 90.201,14.976 90.201,14.976 L87.649,14.976 L87.649,25.094 Z M42.253,21.941 L42.253,52.441 C42.253,52.441 24.568,49.25 24.568,37.127 C24.569,27.458 37.66,23.196 42.253,21.941 Z M42.253,21.372 C31.624,20.603 7.523,25.585 7.523,36.488 C7.523,43.597 20.285,53.99 41.068,54.263 C41.888,54.263 65.497,53.351 65.133,28.01 C64.827,6.726 48.897,2.998 43.803,2.349 L43.803,1.052 C64.111,2.341 80.083,14.554 80.083,29.377 C80.083,45.056 62.216,57.817 40.248,57.817 C18.28,57.817 0.504,45.055 0.504,29.377 C0.504,13.699 18.279,0.937 40.248,0.937 C40.921,0.937 41.59,0.949 42.254,0.973 L42.254,21.372 L42.253,21.372 Z"/>
</svg>
